<svg width="30" height="30" viewBox="0 0 30 30" fill="none" xmlns="http://www.w3.org/2000/svg">
<g id="icon-park-outline:clothes-crew-neck" clip-path="url(#clip0_25_42)">
<g id="Group">
<path id="Vector" d="M23.125 10.625V23.125M23.125 23.125V27.5H6.875V23.125M23.125 23.125H27.5V10.625C27.5 8.75 26.25 6.5625 24.375 5C22.5 3.4375 18.75 2.5 18.75 2.5H11.25C11.25 2.5 7.5 3.4375 5.625 5C3.75 6.5625 2.5 8.75 2.5 10.625V23.125H6.875M6.875 23.125V10.625" stroke="black" stroke-width="3" stroke-linecap="round" stroke-linejoin="round"/>
<path id="Vector_2" d="M18.75 2.5C18.75 3.49456 18.3549 4.44839 17.6517 5.15165C16.9484 5.85491 15.9946 6.25 15 6.25C14.0054 6.25 13.0516 5.85491 12.3483 5.15165C11.6451 4.44839 11.25 3.49456 11.25 2.5" stroke="black" stroke-width="4" stroke-linecap="round" stroke-linejoin="round"/>
</g>
</g>
<defs>
<clipPath id="clip0_25_42">
<rect width="30" height="30" fill="white"/>
</clipPath>
</defs>
</svg>
