<svg width="30" height="30" viewBox="0 0 30 30" fill="none" xmlns="http://www.w3.org/2000/svg">
<g id="mdi:transportation">
<path id="Vector" d="M15 5H6.25C5.25544 5 4.30161 5.39509 3.59835 6.09835C2.89509 6.80161 2.5 7.75544 2.5 8.75V18.75C2.5 19.7446 2.89509 20.6984 3.59835 21.4017C4.30161 22.1049 5.25544 22.5 6.25 22.5L5 23.75V25H6.25L8.75 22.4625L11.25 22.5V16.25H5V7.5H16.25V10H18.75V8.75C18.75 7.75544 18.3549 6.80161 17.6517 6.09835C16.9484 5.39509 15.9946 5 15 5ZM6.25 17.5C6.58152 17.5 6.89946 17.6317 7.13388 17.8661C7.3683 18.1005 7.5 18.4185 7.5 18.75C7.5 19.0815 7.3683 19.3995 7.13388 19.6339C6.89946 19.8683 6.58152 20 6.25 20C5.91848 20 5.60054 19.8683 5.36612 19.6339C5.1317 19.3995 5 19.0815 5 18.75C5 18.4185 5.1317 18.1005 5.36612 17.8661C5.60054 17.6317 5.91848 17.5 6.25 17.5ZM25.7125 12.075C25.5375 11.575 25.0625 11.25 24.5 11.25H15.5125C14.9375 11.25 14.475 11.575 14.2875 12.075L12.5 17.2125V24.1C12.5 24.575 12.9 25 13.375 25H14.15C14.625 25 15 24.525 15 24.05V22.5H25V24.05C25 24.525 25.3875 25 25.8625 25H26.625C27.1 25 27.5 24.575 27.5 24.1V17.2125L25.7125 12.075ZM15.5125 12.5H24.5L25.7875 16.25H14.225L15.5125 12.5ZM15 20C14.6685 20 14.3505 19.8683 14.1161 19.6339C13.8817 19.3995 13.75 19.0815 13.75 18.75C13.75 18.4185 13.8817 18.1005 14.1161 17.8661C14.3505 17.6317 14.6685 17.5 15 17.5C15.3315 17.5 15.6495 17.6317 15.8839 17.8661C16.1183 18.1005 16.25 18.4185 16.25 18.75C16.25 19.0815 16.1183 19.3995 15.8839 19.6339C15.6495 19.8683 15.3315 20 15 20ZM25 20C24.6685 20 24.3505 19.8683 24.1161 19.6339C23.8817 19.3995 23.75 19.0815 23.75 18.75C23.75 18.4185 23.8817 18.1005 24.1161 17.8661C24.3505 17.6317 24.6685 17.5 25 17.5C25.3315 17.5 25.6495 17.6317 25.8839 17.8661C26.1183 18.1005 26.25 18.4185 26.25 18.75C26.25 19.0815 26.1183 19.3995 25.8839 19.6339C25.6495 19.8683 25.3315 20 25 20Z" fill="black"/>
</g>
</svg>
