<svg width="30" height="30" viewBox="0 0 30 30" fill="none" xmlns="http://www.w3.org/2000/svg">
<path d="M15.375 12.75C15.1875 12.75 15.1875 12.5625 15 12.5625V6.75C17.25 6.9375 19.125 7.875 19.125 7.875L20.8125 4.5C20.625 4.5 18 3 15 3V0H13.125V3C11.625 3.375 10.5 3.9375 9.375 4.6875C8.25 5.8125 7.5 7.3125 7.5 9C7.5 10.3125 7.875 13.3125 13.125 15.75V23.0625C11.4375 22.6875 9.375 21.75 8.625 21.375L6.75 24.5625C7.125 24.75 10.125 26.4375 13.125 26.8125V30H15V26.8125C19.3125 26.25 21.75 22.875 21.75 19.6875C21.75 16.875 19.875 14.625 15.375 12.75ZM13.125 11.625C11.625 10.6875 11.25 9.75 11.25 9.1875C11.25 8.4375 11.4375 7.875 12 7.5L13.125 6.9375V11.625ZM15 23.0625V16.6875C17.0625 17.625 18 18.75 18 19.6875C18 20.8125 17.4375 22.6875 15 23.0625Z" fill="black"/>
</svg>
